<svg xmlns="http://www.w3.org/2000/svg" width="400" height="500" viewBox="0 0 400 500"><defs><filter id="shadow"><feDropShadow dx="0" dy="10" stdDeviation="9" flood-opacity=".18"/></filter><filter id="grain"><feTurbulence type="fractalNoise" baseFrequency=".7" numOctaves="3" stitchTiles="stitch"/><feColorMatrix type="saturate" values="0"/><feComponentTransfer><feFuncA type="linear" slope=".08"/></feComponentTransfer><feBlend in="SourceGraphic" mode="soft-light"/></filter><linearGradient id="fabric"><stop stop-color="#3e3c37"/><stop offset=".48" stop-color="#3e3c37"/><stop offset="1" stop-color="#171814" stop-opacity=".7"/></linearGradient></defs><path d="M147 91L113 103 53 151 82 214 120 193 115 391Q200 402 285 391L280 193 318 214 347 151 287 103 253 91Q200 120 147 91Z" fill="url(#fabric)" filter="url(#shadow)"/><g filter="url(#grain)"><path d="M147 91Q200 119 253 91L243 112Q200 139 157 112Z" fill="#161714" opacity=".65"/><path d="M153 96Q200 124 247 96M122 195l8-48M278 195l-8-48M120 381q80 9 160 0M58 155l26 52M342 155l-26 52" stroke="#c5beaa" stroke-width="1.4" opacity=".2" fill="none"/><path d="M140 149l-9 105 9 69M262 155l8 97-8 68M164 320l-7 64M242 335l5 50" stroke="#111" opacity=".12" stroke-width="5" fill="none"/><text x="200" y="182" text-anchor="middle" font-family="Georgia" font-size="15" fill="#c5beaa">STILL HERE.</text><g stroke="#c5beaa" fill="none" opacity=".7"><ellipse cx="200" cy="231" rx="48" ry="37"/><ellipse cx="200" cy="231" rx="24" ry="37"/><path d="M152 231h96M160 211h80M161 251h78M200 194v74"/></g><text x="200" y="290" text-anchor="middle" font-family="Arial" font-size="9" letter-spacing="4" fill="#c5beaa">1999</text></g></svg>